<svg xmlns="http://www.w3.org/2000/svg" viewBox="0 0 34.14 19.84"  width="50"><defs><style>.a{fill:#a48e72;}.b{fill:#fff;}</style></defs><path class="a" d="M8.76,18.68a1.81,1.81,0,0,1-.36-.6,2.28,2.28,0,0,1-.12-.73,1.64,1.64,0,0,0,1-.22,1,1,0,0,0,.29-.81V6.58a1,1,0,0,0-.29-.82,1.63,1.63,0,0,0-1-.23,2.18,2.18,0,0,1,.12-.72,1.77,1.77,0,0,1,.36-.59h5.11a1.79,1.79,0,0,1,.46,1.31,1.79,1.79,0,0,0-1,.24,1,1,0,0,0-.33.81V16.92h.77a2.6,2.6,0,0,0,2.25-1,4.61,4.61,0,0,0,.73-2.79h1.45a2,2,0,0,1,.56,1.16A7.52,7.52,0,0,1,18.93,16a3.49,3.49,0,0,1-.46,2,1.66,1.66,0,0,1-1.49.67Z" transform="translate(-8.28 -3.31)"/><path class="a" d="M27.62,18.89c-1-.08-1.83-.11-2.57-.11a1.4,1.4,0,0,1-.3-.88,1.11,1.11,0,0,0,.65-.15.67.67,0,0,0,.19-.54V10.79a.65.65,0,0,0-.19-.53,1.11,1.11,0,0,0-.65-.15,1.23,1.23,0,0,1,.3-.86c.69,0,1.31,0,1.87-.06l1-.07.67,0a4.82,4.82,0,0,1,2.55.63,3.86,3.86,0,0,1,1.53,1.7,5.63,5.63,0,0,1,.5,2.4,6.24,6.24,0,0,1-.52,2.61,4.05,4.05,0,0,1-1.57,1.83,4.91,4.91,0,0,1-2.68.68C28.17,18.93,27.92,18.91,27.62,18.89Zm2.46-2A5.13,5.13,0,0,0,30.72,14,5,5,0,0,0,30,11.13a2.17,2.17,0,0,0-1.88-1,1.31,1.31,0,0,0-.33,0v7.57l.44,0A2.07,2.07,0,0,0,30.08,16.9Z" transform="translate(-8.28 -3.31)"/><path class="a" d="M41.72,17.66a1.16,1.16,0,0,0,.7.24,1.51,1.51,0,0,1-.08.48,1.22,1.22,0,0,1-.24.4H38.4a1.2,1.2,0,0,1-.23-.4,1.51,1.51,0,0,1-.08-.48c.52,0,.78-.22.78-.65a2.33,2.33,0,0,0-.1-.64l-.08-.29H35.63l-.08.29a2.54,2.54,0,0,0-.12.6q0,.69.87.69a1.51,1.51,0,0,1-.08.48,1.2,1.2,0,0,1-.23.4H32.94a1.05,1.05,0,0,1-.23-.4,1.27,1.27,0,0,1-.08-.48,1.16,1.16,0,0,0,.69-.22,1.3,1.3,0,0,0,.47-.67L36,10.41a4.53,4.53,0,0,0-1.38-.18,1.47,1.47,0,0,1,.33-1h3.74L41.26,17A1.3,1.3,0,0,0,41.72,17.66Zm-3.33-2.41-1-3.38a2.68,2.68,0,0,0-.31-.7l-1.18,4.08Z" transform="translate(-8.28 -3.31)"/><path class="b" d="M24.31,3.31a3.52,3.52,0,0,1,1,.22,2.21,2.21,0,0,1,.84.48L19.94,23.15a3.46,3.46,0,0,1-1-.21,2.53,2.53,0,0,1-.86-.47Z" transform="translate(-8.28 -3.31)"/></svg>